# xmcd CD database file
#
# Track frame offsets:
#	150
#	17268
#	49025
#	66909
#	83717
#	109351
#	142842
#	170487
#	197942
#	223831
#	241640
#
# Disc length: 3486 seconds
#
# Revision: 0
# Processed by: cddbd v1.5.2PL0 Copyright (c) Steve Scherf et al.
# Submitted via: CDex 1.51
#
DISCID=920d9c0b
DTITLE=Gary Stadler - Fairy Lullabies
DYEAR=2006
DGENRE=New Age
TTITLE0=Piano Lullaby #2
TTITLE1=Elphame Lullaby
TTITLE2=Garden Lullaby
TTITLE3=Piano Lullaby
TTITLE4=Sa Brooke Lullaby
TTITLE5=Spark In The Night Lullaby
TTITLE6=Spinneee Lullaby
TTITLE7=Deenaby
TTITLE8=Fly Away Lullaby
TTITLE9=Sweet Lullaby
TTITLE10=For Tammi
EXTD=YEAR: 2006
EXTT0=
EXTT1=
EXTT2=
EXTT3=
EXTT4=
EXTT5=
EXTT6=
EXTT7=
EXTT8=
EXTT9=
EXTT10=
PLAYORDER=
